<mxfile host="app.diagrams.net" agent="Mozilla/5.0 (Macintosh; Intel Mac OS X 10_15_7) AppleWebKit/537.36 (KHTML, like Gecko) Chrome/137.0.0.0 Safari/537.36" version="27.2.0">
  <diagram name="第 1 页" id="j6Y4k2UmRdQ2LZfALvH8">
    <mxGraphModel dx="1298" dy="830" grid="1" gridSize="10" guides="1" tooltips="1" connect="1" arrows="1" fold="1" page="1" pageScale="1" pageWidth="827" pageHeight="1169" math="0" shadow="0">
      <root>
        <mxCell id="0" />
        <mxCell id="1" parent="0" />
        <mxCell id="rxAq2k8TnSCdkmulAkpY-1" value="" style="rounded=0;whiteSpace=wrap;html=1;fillColor=#fff2cc;strokeColor=#d6b656;" parent="1" vertex="1">
          <mxGeometry x="280" y="80" width="20" height="20" as="geometry" />
        </mxCell>
        <mxCell id="rxAq2k8TnSCdkmulAkpY-2" value="" style="rounded=0;whiteSpace=wrap;html=1;fillColor=#fff2cc;strokeColor=#d6b656;" parent="1" vertex="1">
          <mxGeometry x="300" y="80" width="20" height="20" as="geometry" />
        </mxCell>
        <mxCell id="rxAq2k8TnSCdkmulAkpY-3" value="" style="rounded=0;whiteSpace=wrap;html=1;fillColor=#fff2cc;strokeColor=#d6b656;" parent="1" vertex="1">
          <mxGeometry x="320" y="80" width="20" height="20" as="geometry" />
        </mxCell>
        <mxCell id="rxAq2k8TnSCdkmulAkpY-4" value="" style="rounded=0;whiteSpace=wrap;html=1;fillColor=#fff2cc;strokeColor=#d6b656;" parent="1" vertex="1">
          <mxGeometry x="340" y="80" width="20" height="20" as="geometry" />
        </mxCell>
        <mxCell id="rxAq2k8TnSCdkmulAkpY-5" value="" style="rounded=0;whiteSpace=wrap;html=1;fillColor=#fff2cc;strokeColor=#d6b656;" parent="1" vertex="1">
          <mxGeometry x="360" y="80" width="20" height="20" as="geometry" />
        </mxCell>
        <mxCell id="rxAq2k8TnSCdkmulAkpY-6" value="" style="rounded=0;whiteSpace=wrap;html=1;fillColor=#fff2cc;strokeColor=#d6b656;" parent="1" vertex="1">
          <mxGeometry x="380" y="80" width="20" height="20" as="geometry" />
        </mxCell>
        <mxCell id="rxAq2k8TnSCdkmulAkpY-7" value="" style="rounded=0;whiteSpace=wrap;html=1;fillColor=#fff2cc;strokeColor=#d6b656;" parent="1" vertex="1">
          <mxGeometry x="400" y="80" width="20" height="20" as="geometry" />
        </mxCell>
        <mxCell id="rxAq2k8TnSCdkmulAkpY-8" value="" style="rounded=0;whiteSpace=wrap;html=1;fillColor=#fff2cc;strokeColor=#d6b656;" parent="1" vertex="1">
          <mxGeometry x="420" y="80" width="20" height="20" as="geometry" />
        </mxCell>
        <mxCell id="rxAq2k8TnSCdkmulAkpY-9" value="" style="rounded=0;whiteSpace=wrap;html=1;fillColor=#fff2cc;strokeColor=#d6b656;" parent="1" vertex="1">
          <mxGeometry x="440" y="80" width="20" height="20" as="geometry" />
        </mxCell>
        <mxCell id="rxAq2k8TnSCdkmulAkpY-11" value="" style="rounded=0;whiteSpace=wrap;html=1;fillColor=#fff2cc;strokeColor=#d6b656;" parent="1" vertex="1">
          <mxGeometry x="280" y="100" width="20" height="20" as="geometry" />
        </mxCell>
        <mxCell id="rxAq2k8TnSCdkmulAkpY-12" value="" style="rounded=0;whiteSpace=wrap;html=1;fillColor=#fff2cc;strokeColor=#d6b656;" parent="1" vertex="1">
          <mxGeometry x="300" y="100" width="20" height="20" as="geometry" />
        </mxCell>
        <mxCell id="rxAq2k8TnSCdkmulAkpY-13" value="" style="rounded=0;whiteSpace=wrap;html=1;fillColor=#fff2cc;strokeColor=#d6b656;" parent="1" vertex="1">
          <mxGeometry x="320" y="100" width="20" height="20" as="geometry" />
        </mxCell>
        <mxCell id="rxAq2k8TnSCdkmulAkpY-14" value="" style="rounded=0;whiteSpace=wrap;html=1;fillColor=#fff2cc;strokeColor=#d6b656;" parent="1" vertex="1">
          <mxGeometry x="340" y="100" width="20" height="20" as="geometry" />
        </mxCell>
        <mxCell id="rxAq2k8TnSCdkmulAkpY-15" value="" style="rounded=0;whiteSpace=wrap;html=1;fillColor=#fff2cc;strokeColor=#d6b656;" parent="1" vertex="1">
          <mxGeometry x="360" y="100" width="20" height="20" as="geometry" />
        </mxCell>
        <mxCell id="rxAq2k8TnSCdkmulAkpY-16" value="" style="rounded=0;whiteSpace=wrap;html=1;fillColor=#fff2cc;strokeColor=#d6b656;" parent="1" vertex="1">
          <mxGeometry x="380" y="100" width="20" height="20" as="geometry" />
        </mxCell>
        <mxCell id="rxAq2k8TnSCdkmulAkpY-17" value="" style="rounded=0;whiteSpace=wrap;html=1;fillColor=#fff2cc;strokeColor=#d6b656;" parent="1" vertex="1">
          <mxGeometry x="400" y="100" width="20" height="20" as="geometry" />
        </mxCell>
        <mxCell id="rxAq2k8TnSCdkmulAkpY-18" value="" style="rounded=0;whiteSpace=wrap;html=1;fillColor=#fff2cc;strokeColor=#d6b656;" parent="1" vertex="1">
          <mxGeometry x="420" y="100" width="20" height="20" as="geometry" />
        </mxCell>
        <mxCell id="rxAq2k8TnSCdkmulAkpY-19" value="" style="rounded=0;whiteSpace=wrap;html=1;fillColor=#fff2cc;strokeColor=#d6b656;" parent="1" vertex="1">
          <mxGeometry x="440" y="100" width="20" height="20" as="geometry" />
        </mxCell>
        <mxCell id="rxAq2k8TnSCdkmulAkpY-20" value="" style="rounded=0;whiteSpace=wrap;html=1;fillColor=#fff2cc;strokeColor=light-dark(#e1c470, #6d5100);" parent="1" vertex="1">
          <mxGeometry x="280" y="120" width="20" height="20" as="geometry" />
        </mxCell>
        <mxCell id="rxAq2k8TnSCdkmulAkpY-21" value="" style="rounded=0;whiteSpace=wrap;html=1;fillColor=#fff2cc;strokeColor=light-dark(#e1c470, #6d5100);" parent="1" vertex="1">
          <mxGeometry x="300" y="120" width="20" height="20" as="geometry" />
        </mxCell>
        <mxCell id="rxAq2k8TnSCdkmulAkpY-22" value="" style="rounded=0;whiteSpace=wrap;html=1;fillColor=#fff2cc;strokeColor=light-dark(#e1c470, #6d5100);" parent="1" vertex="1">
          <mxGeometry x="320" y="120" width="20" height="20" as="geometry" />
        </mxCell>
        <mxCell id="rxAq2k8TnSCdkmulAkpY-23" value="" style="rounded=0;whiteSpace=wrap;html=1;fillColor=#fff2cc;strokeColor=light-dark(#e1c470, #6d5100);" parent="1" vertex="1">
          <mxGeometry x="340" y="120" width="20" height="20" as="geometry" />
        </mxCell>
        <mxCell id="rxAq2k8TnSCdkmulAkpY-24" value="" style="rounded=0;whiteSpace=wrap;html=1;fillColor=#fff2cc;strokeColor=light-dark(#e1c470, #6d5100);" parent="1" vertex="1">
          <mxGeometry x="360" y="120" width="20" height="20" as="geometry" />
        </mxCell>
        <mxCell id="rxAq2k8TnSCdkmulAkpY-25" value="" style="rounded=0;whiteSpace=wrap;html=1;fillColor=#fff2cc;strokeColor=light-dark(#e1c470, #6d5100);" parent="1" vertex="1">
          <mxGeometry x="380" y="120" width="20" height="20" as="geometry" />
        </mxCell>
        <mxCell id="rxAq2k8TnSCdkmulAkpY-26" value="" style="rounded=0;whiteSpace=wrap;html=1;fillColor=#fff2cc;strokeColor=light-dark(#e1c470, #6d5100);" parent="1" vertex="1">
          <mxGeometry x="400" y="120" width="20" height="20" as="geometry" />
        </mxCell>
        <mxCell id="rxAq2k8TnSCdkmulAkpY-27" value="" style="rounded=0;whiteSpace=wrap;html=1;fillColor=#fff2cc;strokeColor=light-dark(#e1c470, #6d5100);" parent="1" vertex="1">
          <mxGeometry x="420" y="120" width="20" height="20" as="geometry" />
        </mxCell>
        <mxCell id="rxAq2k8TnSCdkmulAkpY-28" value="" style="rounded=0;whiteSpace=wrap;html=1;fillColor=#fff2cc;strokeColor=light-dark(#e1c470, #6d5100);" parent="1" vertex="1">
          <mxGeometry x="440" y="120" width="20" height="20" as="geometry" />
        </mxCell>
        <mxCell id="rxAq2k8TnSCdkmulAkpY-29" value="" style="rounded=0;whiteSpace=wrap;html=1;strokeColor=light-dark(#e1c470, #6d5100);" parent="1" vertex="1">
          <mxGeometry x="280" y="140" width="20" height="20" as="geometry" />
        </mxCell>
        <mxCell id="rxAq2k8TnSCdkmulAkpY-30" value="" style="rounded=0;whiteSpace=wrap;html=1;strokeColor=light-dark(#e1c470, #6d5100);" parent="1" vertex="1">
          <mxGeometry x="300" y="140" width="20" height="20" as="geometry" />
        </mxCell>
        <mxCell id="rxAq2k8TnSCdkmulAkpY-31" value="" style="rounded=0;whiteSpace=wrap;html=1;strokeColor=light-dark(#e1c470, #6d5100);" parent="1" vertex="1">
          <mxGeometry x="320" y="140" width="20" height="20" as="geometry" />
        </mxCell>
        <mxCell id="rxAq2k8TnSCdkmulAkpY-32" value="" style="rounded=0;whiteSpace=wrap;html=1;strokeColor=light-dark(#e1c470, #6d5100);" parent="1" vertex="1">
          <mxGeometry x="340" y="140" width="20" height="20" as="geometry" />
        </mxCell>
        <mxCell id="rxAq2k8TnSCdkmulAkpY-33" value="" style="rounded=0;whiteSpace=wrap;html=1;strokeColor=light-dark(#e1c470, #6d5100);" parent="1" vertex="1">
          <mxGeometry x="360" y="140" width="20" height="20" as="geometry" />
        </mxCell>
        <mxCell id="rxAq2k8TnSCdkmulAkpY-34" value="" style="rounded=0;whiteSpace=wrap;html=1;strokeColor=light-dark(#e1c470, #6d5100);" parent="1" vertex="1">
          <mxGeometry x="380" y="140" width="20" height="20" as="geometry" />
        </mxCell>
        <mxCell id="rxAq2k8TnSCdkmulAkpY-35" value="" style="rounded=0;whiteSpace=wrap;html=1;strokeColor=light-dark(#e1c470, #6d5100);" parent="1" vertex="1">
          <mxGeometry x="400" y="140" width="20" height="20" as="geometry" />
        </mxCell>
        <mxCell id="rxAq2k8TnSCdkmulAkpY-36" value="" style="rounded=0;whiteSpace=wrap;html=1;strokeColor=light-dark(#e1c470, #6d5100);" parent="1" vertex="1">
          <mxGeometry x="420" y="140" width="20" height="20" as="geometry" />
        </mxCell>
        <mxCell id="rxAq2k8TnSCdkmulAkpY-37" value="" style="rounded=0;whiteSpace=wrap;html=1;strokeColor=light-dark(#e1c470, #6d5100);" parent="1" vertex="1">
          <mxGeometry x="440" y="140" width="20" height="20" as="geometry" />
        </mxCell>
        <mxCell id="rxAq2k8TnSCdkmulAkpY-38" value="" style="rounded=0;whiteSpace=wrap;html=1;strokeColor=light-dark(#e1c470, #6d5100);" parent="1" vertex="1">
          <mxGeometry x="280" y="160" width="20" height="20" as="geometry" />
        </mxCell>
        <mxCell id="rxAq2k8TnSCdkmulAkpY-39" value="" style="rounded=0;whiteSpace=wrap;html=1;strokeColor=light-dark(#e1c470, #6d5100);" parent="1" vertex="1">
          <mxGeometry x="300" y="160" width="20" height="20" as="geometry" />
        </mxCell>
        <mxCell id="rxAq2k8TnSCdkmulAkpY-40" value="" style="rounded=0;whiteSpace=wrap;html=1;strokeColor=light-dark(#e1c470, #6d5100);" parent="1" vertex="1">
          <mxGeometry x="320" y="160" width="20" height="20" as="geometry" />
        </mxCell>
        <mxCell id="rxAq2k8TnSCdkmulAkpY-41" value="" style="rounded=0;whiteSpace=wrap;html=1;strokeColor=light-dark(#e1c470, #6d5100);" parent="1" vertex="1">
          <mxGeometry x="340" y="160" width="20" height="20" as="geometry" />
        </mxCell>
        <mxCell id="rxAq2k8TnSCdkmulAkpY-42" value="" style="rounded=0;whiteSpace=wrap;html=1;strokeColor=light-dark(#e1c470, #6d5100);" parent="1" vertex="1">
          <mxGeometry x="360" y="160" width="20" height="20" as="geometry" />
        </mxCell>
        <mxCell id="rxAq2k8TnSCdkmulAkpY-43" value="" style="rounded=0;whiteSpace=wrap;html=1;strokeColor=light-dark(#e1c470, #6d5100);" parent="1" vertex="1">
          <mxGeometry x="380" y="160" width="20" height="20" as="geometry" />
        </mxCell>
        <mxCell id="rxAq2k8TnSCdkmulAkpY-44" value="" style="rounded=0;whiteSpace=wrap;html=1;strokeColor=light-dark(#e1c470, #6d5100);" parent="1" vertex="1">
          <mxGeometry x="400" y="160" width="20" height="20" as="geometry" />
        </mxCell>
        <mxCell id="rxAq2k8TnSCdkmulAkpY-45" value="" style="rounded=0;whiteSpace=wrap;html=1;strokeColor=light-dark(#e1c470, #6d5100);" parent="1" vertex="1">
          <mxGeometry x="420" y="160" width="20" height="20" as="geometry" />
        </mxCell>
        <mxCell id="rxAq2k8TnSCdkmulAkpY-46" value="" style="rounded=0;whiteSpace=wrap;html=1;strokeColor=light-dark(#e1c470, #6d5100);" parent="1" vertex="1">
          <mxGeometry x="440" y="160" width="20" height="20" as="geometry" />
        </mxCell>
        <mxCell id="rxAq2k8TnSCdkmulAkpY-47" value="" style="rounded=0;whiteSpace=wrap;html=1;strokeColor=light-dark(#e1c470, #6d5100);" parent="1" vertex="1">
          <mxGeometry x="280" y="180" width="20" height="20" as="geometry" />
        </mxCell>
        <mxCell id="rxAq2k8TnSCdkmulAkpY-48" value="" style="rounded=0;whiteSpace=wrap;html=1;strokeColor=light-dark(#e1c470, #6d5100);" parent="1" vertex="1">
          <mxGeometry x="300" y="180" width="20" height="20" as="geometry" />
        </mxCell>
        <mxCell id="rxAq2k8TnSCdkmulAkpY-49" value="" style="rounded=0;whiteSpace=wrap;html=1;strokeColor=light-dark(#e1c470, #6d5100);" parent="1" vertex="1">
          <mxGeometry x="320" y="180" width="20" height="20" as="geometry" />
        </mxCell>
        <mxCell id="rxAq2k8TnSCdkmulAkpY-50" value="" style="rounded=0;whiteSpace=wrap;html=1;strokeColor=light-dark(#e1c470, #6d5100);" parent="1" vertex="1">
          <mxGeometry x="340" y="180" width="20" height="20" as="geometry" />
        </mxCell>
        <mxCell id="rxAq2k8TnSCdkmulAkpY-51" value="" style="rounded=0;whiteSpace=wrap;html=1;strokeColor=light-dark(#e1c470, #6d5100);" parent="1" vertex="1">
          <mxGeometry x="360" y="180" width="20" height="20" as="geometry" />
        </mxCell>
        <mxCell id="rxAq2k8TnSCdkmulAkpY-52" value="" style="rounded=0;whiteSpace=wrap;html=1;strokeColor=light-dark(#e1c470, #6d5100);" parent="1" vertex="1">
          <mxGeometry x="380" y="180" width="20" height="20" as="geometry" />
        </mxCell>
        <mxCell id="rxAq2k8TnSCdkmulAkpY-53" value="" style="rounded=0;whiteSpace=wrap;html=1;strokeColor=light-dark(#e1c470, #6d5100);" parent="1" vertex="1">
          <mxGeometry x="400" y="180" width="20" height="20" as="geometry" />
        </mxCell>
        <mxCell id="rxAq2k8TnSCdkmulAkpY-54" value="" style="rounded=0;whiteSpace=wrap;html=1;strokeColor=light-dark(#e1c470, #6d5100);" parent="1" vertex="1">
          <mxGeometry x="420" y="180" width="20" height="20" as="geometry" />
        </mxCell>
        <mxCell id="rxAq2k8TnSCdkmulAkpY-55" value="" style="rounded=0;whiteSpace=wrap;html=1;strokeColor=light-dark(#e1c470, #6d5100);" parent="1" vertex="1">
          <mxGeometry x="440" y="180" width="20" height="20" as="geometry" />
        </mxCell>
        <mxCell id="rxAq2k8TnSCdkmulAkpY-56" value="" style="rounded=0;whiteSpace=wrap;html=1;strokeColor=light-dark(#e1c470, #6d5100);" parent="1" vertex="1">
          <mxGeometry x="280" y="200" width="20" height="20" as="geometry" />
        </mxCell>
        <mxCell id="rxAq2k8TnSCdkmulAkpY-57" value="" style="rounded=0;whiteSpace=wrap;html=1;strokeColor=light-dark(#e1c470, #6d5100);" parent="1" vertex="1">
          <mxGeometry x="300" y="200" width="20" height="20" as="geometry" />
        </mxCell>
        <mxCell id="rxAq2k8TnSCdkmulAkpY-58" value="" style="rounded=0;whiteSpace=wrap;html=1;strokeColor=light-dark(#e1c470, #6d5100);" parent="1" vertex="1">
          <mxGeometry x="320" y="200" width="20" height="20" as="geometry" />
        </mxCell>
        <mxCell id="rxAq2k8TnSCdkmulAkpY-59" value="" style="rounded=0;whiteSpace=wrap;html=1;strokeColor=light-dark(#e1c470, #6d5100);" parent="1" vertex="1">
          <mxGeometry x="340" y="200" width="20" height="20" as="geometry" />
        </mxCell>
        <mxCell id="rxAq2k8TnSCdkmulAkpY-60" value="" style="rounded=0;whiteSpace=wrap;html=1;strokeColor=light-dark(#e1c470, #6d5100);" parent="1" vertex="1">
          <mxGeometry x="360" y="200" width="20" height="20" as="geometry" />
        </mxCell>
        <mxCell id="rxAq2k8TnSCdkmulAkpY-61" value="" style="rounded=0;whiteSpace=wrap;html=1;strokeColor=light-dark(#e1c470, #6d5100);" parent="1" vertex="1">
          <mxGeometry x="380" y="200" width="20" height="20" as="geometry" />
        </mxCell>
        <mxCell id="rxAq2k8TnSCdkmulAkpY-62" value="" style="rounded=0;whiteSpace=wrap;html=1;strokeColor=light-dark(#e1c470, #6d5100);" parent="1" vertex="1">
          <mxGeometry x="400" y="200" width="20" height="20" as="geometry" />
        </mxCell>
        <mxCell id="rxAq2k8TnSCdkmulAkpY-63" value="" style="rounded=0;whiteSpace=wrap;html=1;strokeColor=light-dark(#e1c470, #6d5100);" parent="1" vertex="1">
          <mxGeometry x="420" y="200" width="20" height="20" as="geometry" />
        </mxCell>
        <mxCell id="rxAq2k8TnSCdkmulAkpY-64" value="" style="rounded=0;whiteSpace=wrap;html=1;strokeColor=light-dark(#e1c470, #6d5100);" parent="1" vertex="1">
          <mxGeometry x="440" y="200" width="20" height="20" as="geometry" />
        </mxCell>
        <mxCell id="rxAq2k8TnSCdkmulAkpY-65" value="" style="rounded=0;whiteSpace=wrap;html=1;strokeColor=light-dark(#e1c470, #6d5100);" parent="1" vertex="1">
          <mxGeometry x="280" y="220" width="20" height="20" as="geometry" />
        </mxCell>
        <mxCell id="rxAq2k8TnSCdkmulAkpY-66" value="" style="rounded=0;whiteSpace=wrap;html=1;strokeColor=light-dark(#e1c470, #6d5100);" parent="1" vertex="1">
          <mxGeometry x="300" y="220" width="20" height="20" as="geometry" />
        </mxCell>
        <mxCell id="rxAq2k8TnSCdkmulAkpY-67" value="" style="rounded=0;whiteSpace=wrap;html=1;strokeColor=light-dark(#e1c470, #6d5100);" parent="1" vertex="1">
          <mxGeometry x="320" y="220" width="20" height="20" as="geometry" />
        </mxCell>
        <mxCell id="rxAq2k8TnSCdkmulAkpY-68" value="" style="rounded=0;whiteSpace=wrap;html=1;strokeColor=light-dark(#e1c470, #6d5100);" parent="1" vertex="1">
          <mxGeometry x="340" y="220" width="20" height="20" as="geometry" />
        </mxCell>
        <mxCell id="rxAq2k8TnSCdkmulAkpY-69" value="" style="rounded=0;whiteSpace=wrap;html=1;strokeColor=light-dark(#e1c470, #6d5100);" parent="1" vertex="1">
          <mxGeometry x="360" y="220" width="20" height="20" as="geometry" />
        </mxCell>
        <mxCell id="rxAq2k8TnSCdkmulAkpY-70" value="" style="rounded=0;whiteSpace=wrap;html=1;strokeColor=light-dark(#e1c470, #6d5100);" parent="1" vertex="1">
          <mxGeometry x="380" y="220" width="20" height="20" as="geometry" />
        </mxCell>
        <mxCell id="rxAq2k8TnSCdkmulAkpY-71" value="" style="rounded=0;whiteSpace=wrap;html=1;strokeColor=light-dark(#e1c470, #6d5100);" parent="1" vertex="1">
          <mxGeometry x="400" y="220" width="20" height="20" as="geometry" />
        </mxCell>
        <mxCell id="rxAq2k8TnSCdkmulAkpY-72" value="" style="rounded=0;whiteSpace=wrap;html=1;strokeColor=light-dark(#e1c470, #6d5100);" parent="1" vertex="1">
          <mxGeometry x="420" y="220" width="20" height="20" as="geometry" />
        </mxCell>
        <mxCell id="rxAq2k8TnSCdkmulAkpY-73" value="" style="rounded=0;whiteSpace=wrap;html=1;strokeColor=light-dark(#e1c470, #6d5100);" parent="1" vertex="1">
          <mxGeometry x="440" y="220" width="20" height="20" as="geometry" />
        </mxCell>
        <mxCell id="rxAq2k8TnSCdkmulAkpY-74" value="" style="rounded=0;whiteSpace=wrap;html=1;strokeColor=light-dark(#e1c470, #6d5100);" parent="1" vertex="1">
          <mxGeometry x="280" y="240" width="20" height="20" as="geometry" />
        </mxCell>
        <mxCell id="rxAq2k8TnSCdkmulAkpY-75" value="" style="rounded=0;whiteSpace=wrap;html=1;strokeColor=light-dark(#e1c470, #6d5100);" parent="1" vertex="1">
          <mxGeometry x="300" y="240" width="20" height="20" as="geometry" />
        </mxCell>
        <mxCell id="rxAq2k8TnSCdkmulAkpY-76" value="" style="rounded=0;whiteSpace=wrap;html=1;strokeColor=light-dark(#e1c470, #6d5100);" parent="1" vertex="1">
          <mxGeometry x="320" y="240" width="20" height="20" as="geometry" />
        </mxCell>
        <mxCell id="rxAq2k8TnSCdkmulAkpY-77" value="" style="rounded=0;whiteSpace=wrap;html=1;strokeColor=light-dark(#e1c470, #6d5100);" parent="1" vertex="1">
          <mxGeometry x="340" y="240" width="20" height="20" as="geometry" />
        </mxCell>
        <mxCell id="rxAq2k8TnSCdkmulAkpY-78" value="" style="rounded=0;whiteSpace=wrap;html=1;strokeColor=light-dark(#e1c470, #6d5100);" parent="1" vertex="1">
          <mxGeometry x="360" y="240" width="20" height="20" as="geometry" />
        </mxCell>
        <mxCell id="rxAq2k8TnSCdkmulAkpY-79" value="" style="rounded=0;whiteSpace=wrap;html=1;strokeColor=light-dark(#e1c470, #6d5100);" parent="1" vertex="1">
          <mxGeometry x="380" y="240" width="20" height="20" as="geometry" />
        </mxCell>
        <mxCell id="rxAq2k8TnSCdkmulAkpY-80" value="" style="rounded=0;whiteSpace=wrap;html=1;strokeColor=light-dark(#e1c470, #6d5100);" parent="1" vertex="1">
          <mxGeometry x="400" y="240" width="20" height="20" as="geometry" />
        </mxCell>
        <mxCell id="rxAq2k8TnSCdkmulAkpY-81" value="" style="rounded=0;whiteSpace=wrap;html=1;strokeColor=light-dark(#e1c470, #6d5100);" parent="1" vertex="1">
          <mxGeometry x="420" y="240" width="20" height="20" as="geometry" />
        </mxCell>
        <mxCell id="rxAq2k8TnSCdkmulAkpY-82" value="" style="rounded=0;whiteSpace=wrap;html=1;strokeColor=light-dark(#e1c470, #6d5100);" parent="1" vertex="1">
          <mxGeometry x="440" y="240" width="20" height="20" as="geometry" />
        </mxCell>
        <mxCell id="rxAq2k8TnSCdkmulAkpY-83" value="" style="rounded=0;whiteSpace=wrap;html=1;strokeColor=#d6b656;fillColor=#fff2cc;" parent="1" vertex="1">
          <mxGeometry x="540" y="80" width="20" height="20" as="geometry" />
        </mxCell>
        <mxCell id="rxAq2k8TnSCdkmulAkpY-84" value="" style="rounded=0;whiteSpace=wrap;html=1;strokeColor=#d6b656;fillColor=#fff2cc;" parent="1" vertex="1">
          <mxGeometry x="560" y="80" width="20" height="20" as="geometry" />
        </mxCell>
        <mxCell id="rxAq2k8TnSCdkmulAkpY-85" value="" style="rounded=0;whiteSpace=wrap;html=1;strokeColor=#d6b656;fillColor=#fff2cc;" parent="1" vertex="1">
          <mxGeometry x="580" y="80" width="20" height="20" as="geometry" />
        </mxCell>
        <mxCell id="rxAq2k8TnSCdkmulAkpY-86" value="" style="rounded=0;whiteSpace=wrap;html=1;strokeColor=light-dark(#e1c470, #6d5100);" parent="1" vertex="1">
          <mxGeometry x="600" y="80" width="20" height="20" as="geometry" />
        </mxCell>
        <mxCell id="rxAq2k8TnSCdkmulAkpY-87" value="" style="rounded=0;whiteSpace=wrap;html=1;strokeColor=light-dark(#e1c470, #6d5100);" parent="1" vertex="1">
          <mxGeometry x="620" y="80" width="20" height="20" as="geometry" />
        </mxCell>
        <mxCell id="rxAq2k8TnSCdkmulAkpY-88" value="" style="rounded=0;whiteSpace=wrap;html=1;strokeColor=light-dark(#e1c470, #6d5100);" parent="1" vertex="1">
          <mxGeometry x="640" y="80" width="20" height="20" as="geometry" />
        </mxCell>
        <mxCell id="rxAq2k8TnSCdkmulAkpY-89" value="" style="rounded=0;whiteSpace=wrap;html=1;strokeColor=light-dark(#e1c470, #6d5100);" parent="1" vertex="1">
          <mxGeometry x="660" y="80" width="20" height="20" as="geometry" />
        </mxCell>
        <mxCell id="rxAq2k8TnSCdkmulAkpY-90" value="" style="rounded=0;whiteSpace=wrap;html=1;strokeColor=light-dark(#e1c470, #6d5100);" parent="1" vertex="1">
          <mxGeometry x="680" y="80" width="20" height="20" as="geometry" />
        </mxCell>
        <mxCell id="rxAq2k8TnSCdkmulAkpY-91" value="" style="rounded=0;whiteSpace=wrap;html=1;strokeColor=light-dark(#e1c470, #6d5100);" parent="1" vertex="1">
          <mxGeometry x="700" y="80" width="20" height="20" as="geometry" />
        </mxCell>
        <mxCell id="rxAq2k8TnSCdkmulAkpY-92" value="" style="rounded=0;whiteSpace=wrap;html=1;strokeColor=#d6b656;fillColor=#fff2cc;" parent="1" vertex="1">
          <mxGeometry x="540" y="100" width="20" height="20" as="geometry" />
        </mxCell>
        <mxCell id="rxAq2k8TnSCdkmulAkpY-93" value="" style="rounded=0;whiteSpace=wrap;html=1;strokeColor=#d6b656;fillColor=#fff2cc;" parent="1" vertex="1">
          <mxGeometry x="560" y="100" width="20" height="20" as="geometry" />
        </mxCell>
        <mxCell id="rxAq2k8TnSCdkmulAkpY-94" value="" style="rounded=0;whiteSpace=wrap;html=1;strokeColor=#d6b656;fillColor=#fff2cc;" parent="1" vertex="1">
          <mxGeometry x="580" y="100" width="20" height="20" as="geometry" />
        </mxCell>
        <mxCell id="rxAq2k8TnSCdkmulAkpY-95" value="" style="rounded=0;whiteSpace=wrap;html=1;strokeColor=light-dark(#e1c470, #6d5100);" parent="1" vertex="1">
          <mxGeometry x="600" y="100" width="20" height="20" as="geometry" />
        </mxCell>
        <mxCell id="rxAq2k8TnSCdkmulAkpY-96" value="" style="rounded=0;whiteSpace=wrap;html=1;strokeColor=light-dark(#e1c470, #6d5100);" parent="1" vertex="1">
          <mxGeometry x="620" y="100" width="20" height="20" as="geometry" />
        </mxCell>
        <mxCell id="rxAq2k8TnSCdkmulAkpY-97" value="" style="rounded=0;whiteSpace=wrap;html=1;strokeColor=light-dark(#e1c470, #6d5100);" parent="1" vertex="1">
          <mxGeometry x="640" y="100" width="20" height="20" as="geometry" />
        </mxCell>
        <mxCell id="rxAq2k8TnSCdkmulAkpY-98" value="" style="rounded=0;whiteSpace=wrap;html=1;strokeColor=light-dark(#e1c470, #6d5100);" parent="1" vertex="1">
          <mxGeometry x="660" y="100" width="20" height="20" as="geometry" />
        </mxCell>
        <mxCell id="rxAq2k8TnSCdkmulAkpY-99" value="" style="rounded=0;whiteSpace=wrap;html=1;strokeColor=light-dark(#e1c470, #6d5100);" parent="1" vertex="1">
          <mxGeometry x="680" y="100" width="20" height="20" as="geometry" />
        </mxCell>
        <mxCell id="rxAq2k8TnSCdkmulAkpY-100" value="" style="rounded=0;whiteSpace=wrap;html=1;strokeColor=light-dark(#e1c470, #6d5100);" parent="1" vertex="1">
          <mxGeometry x="700" y="100" width="20" height="20" as="geometry" />
        </mxCell>
        <mxCell id="rxAq2k8TnSCdkmulAkpY-101" value="" style="rounded=0;whiteSpace=wrap;html=1;strokeColor=#d6b656;fillColor=#fff2cc;" parent="1" vertex="1">
          <mxGeometry x="540" y="120" width="20" height="20" as="geometry" />
        </mxCell>
        <mxCell id="rxAq2k8TnSCdkmulAkpY-102" value="" style="rounded=0;whiteSpace=wrap;html=1;strokeColor=#d6b656;fillColor=#fff2cc;" parent="1" vertex="1">
          <mxGeometry x="560" y="120" width="20" height="20" as="geometry" />
        </mxCell>
        <mxCell id="rxAq2k8TnSCdkmulAkpY-103" value="" style="rounded=0;whiteSpace=wrap;html=1;strokeColor=#d6b656;fillColor=#fff2cc;" parent="1" vertex="1">
          <mxGeometry x="580" y="120" width="20" height="20" as="geometry" />
        </mxCell>
        <mxCell id="rxAq2k8TnSCdkmulAkpY-104" value="" style="rounded=0;whiteSpace=wrap;html=1;strokeColor=light-dark(#e1c470, #6d5100);" parent="1" vertex="1">
          <mxGeometry x="600" y="120" width="20" height="20" as="geometry" />
        </mxCell>
        <mxCell id="rxAq2k8TnSCdkmulAkpY-105" value="" style="rounded=0;whiteSpace=wrap;html=1;strokeColor=light-dark(#e1c470, #6d5100);" parent="1" vertex="1">
          <mxGeometry x="620" y="120" width="20" height="20" as="geometry" />
        </mxCell>
        <mxCell id="rxAq2k8TnSCdkmulAkpY-106" value="" style="rounded=0;whiteSpace=wrap;html=1;strokeColor=light-dark(#e1c470, #6d5100);" parent="1" vertex="1">
          <mxGeometry x="640" y="120" width="20" height="20" as="geometry" />
        </mxCell>
        <mxCell id="rxAq2k8TnSCdkmulAkpY-107" value="" style="rounded=0;whiteSpace=wrap;html=1;strokeColor=light-dark(#e1c470, #6d5100);" parent="1" vertex="1">
          <mxGeometry x="660" y="120" width="20" height="20" as="geometry" />
        </mxCell>
        <mxCell id="rxAq2k8TnSCdkmulAkpY-108" value="" style="rounded=0;whiteSpace=wrap;html=1;strokeColor=light-dark(#e1c470, #6d5100);" parent="1" vertex="1">
          <mxGeometry x="680" y="120" width="20" height="20" as="geometry" />
        </mxCell>
        <mxCell id="rxAq2k8TnSCdkmulAkpY-109" value="" style="rounded=0;whiteSpace=wrap;html=1;strokeColor=light-dark(#e1c470, #6d5100);" parent="1" vertex="1">
          <mxGeometry x="700" y="120" width="20" height="20" as="geometry" />
        </mxCell>
        <mxCell id="rxAq2k8TnSCdkmulAkpY-110" value="" style="rounded=0;whiteSpace=wrap;html=1;strokeColor=#d6b656;fillColor=#fff2cc;" parent="1" vertex="1">
          <mxGeometry x="540" y="140" width="20" height="20" as="geometry" />
        </mxCell>
        <mxCell id="rxAq2k8TnSCdkmulAkpY-111" value="" style="rounded=0;whiteSpace=wrap;html=1;strokeColor=#d6b656;fillColor=#fff2cc;" parent="1" vertex="1">
          <mxGeometry x="560" y="140" width="20" height="20" as="geometry" />
        </mxCell>
        <mxCell id="rxAq2k8TnSCdkmulAkpY-112" value="" style="rounded=0;whiteSpace=wrap;html=1;strokeColor=#d6b656;fillColor=#fff2cc;" parent="1" vertex="1">
          <mxGeometry x="580" y="140" width="20" height="20" as="geometry" />
        </mxCell>
        <mxCell id="rxAq2k8TnSCdkmulAkpY-113" value="" style="rounded=0;whiteSpace=wrap;html=1;strokeColor=light-dark(#e1c470, #6d5100);" parent="1" vertex="1">
          <mxGeometry x="600" y="140" width="20" height="20" as="geometry" />
        </mxCell>
        <mxCell id="rxAq2k8TnSCdkmulAkpY-114" value="" style="rounded=0;whiteSpace=wrap;html=1;strokeColor=light-dark(#e1c470, #6d5100);" parent="1" vertex="1">
          <mxGeometry x="620" y="140" width="20" height="20" as="geometry" />
        </mxCell>
        <mxCell id="rxAq2k8TnSCdkmulAkpY-115" value="" style="rounded=0;whiteSpace=wrap;html=1;strokeColor=light-dark(#e1c470, #6d5100);" parent="1" vertex="1">
          <mxGeometry x="640" y="140" width="20" height="20" as="geometry" />
        </mxCell>
        <mxCell id="rxAq2k8TnSCdkmulAkpY-116" value="" style="rounded=0;whiteSpace=wrap;html=1;strokeColor=light-dark(#e1c470, #6d5100);" parent="1" vertex="1">
          <mxGeometry x="660" y="140" width="20" height="20" as="geometry" />
        </mxCell>
        <mxCell id="rxAq2k8TnSCdkmulAkpY-117" value="" style="rounded=0;whiteSpace=wrap;html=1;strokeColor=light-dark(#e1c470, #6d5100);" parent="1" vertex="1">
          <mxGeometry x="680" y="140" width="20" height="20" as="geometry" />
        </mxCell>
        <mxCell id="rxAq2k8TnSCdkmulAkpY-118" value="" style="rounded=0;whiteSpace=wrap;html=1;strokeColor=light-dark(#e1c470, #6d5100);" parent="1" vertex="1">
          <mxGeometry x="700" y="140" width="20" height="20" as="geometry" />
        </mxCell>
        <mxCell id="rxAq2k8TnSCdkmulAkpY-119" value="" style="rounded=0;whiteSpace=wrap;html=1;strokeColor=#d6b656;fillColor=#fff2cc;" parent="1" vertex="1">
          <mxGeometry x="540" y="160" width="20" height="20" as="geometry" />
        </mxCell>
        <mxCell id="rxAq2k8TnSCdkmulAkpY-120" value="" style="rounded=0;whiteSpace=wrap;html=1;strokeColor=#d6b656;fillColor=#fff2cc;" parent="1" vertex="1">
          <mxGeometry x="560" y="160" width="20" height="20" as="geometry" />
        </mxCell>
        <mxCell id="rxAq2k8TnSCdkmulAkpY-121" value="" style="rounded=0;whiteSpace=wrap;html=1;strokeColor=#d6b656;fillColor=#fff2cc;" parent="1" vertex="1">
          <mxGeometry x="580" y="160" width="20" height="20" as="geometry" />
        </mxCell>
        <mxCell id="rxAq2k8TnSCdkmulAkpY-122" value="" style="rounded=0;whiteSpace=wrap;html=1;strokeColor=light-dark(#e1c470, #6d5100);" parent="1" vertex="1">
          <mxGeometry x="600" y="160" width="20" height="20" as="geometry" />
        </mxCell>
        <mxCell id="rxAq2k8TnSCdkmulAkpY-123" value="" style="rounded=0;whiteSpace=wrap;html=1;strokeColor=light-dark(#e1c470, #6d5100);" parent="1" vertex="1">
          <mxGeometry x="620" y="160" width="20" height="20" as="geometry" />
        </mxCell>
        <mxCell id="rxAq2k8TnSCdkmulAkpY-124" value="" style="rounded=0;whiteSpace=wrap;html=1;strokeColor=light-dark(#e1c470, #6d5100);" parent="1" vertex="1">
          <mxGeometry x="640" y="160" width="20" height="20" as="geometry" />
        </mxCell>
        <mxCell id="rxAq2k8TnSCdkmulAkpY-125" value="" style="rounded=0;whiteSpace=wrap;html=1;strokeColor=light-dark(#e1c470, #6d5100);" parent="1" vertex="1">
          <mxGeometry x="660" y="160" width="20" height="20" as="geometry" />
        </mxCell>
        <mxCell id="rxAq2k8TnSCdkmulAkpY-126" value="" style="rounded=0;whiteSpace=wrap;html=1;strokeColor=light-dark(#e1c470, #6d5100);" parent="1" vertex="1">
          <mxGeometry x="680" y="160" width="20" height="20" as="geometry" />
        </mxCell>
        <mxCell id="rxAq2k8TnSCdkmulAkpY-127" value="" style="rounded=0;whiteSpace=wrap;html=1;strokeColor=light-dark(#e1c470, #6d5100);" parent="1" vertex="1">
          <mxGeometry x="700" y="160" width="20" height="20" as="geometry" />
        </mxCell>
        <mxCell id="rxAq2k8TnSCdkmulAkpY-128" value="" style="rounded=0;whiteSpace=wrap;html=1;strokeColor=#d6b656;fillColor=#fff2cc;" parent="1" vertex="1">
          <mxGeometry x="540" y="180" width="20" height="20" as="geometry" />
        </mxCell>
        <mxCell id="rxAq2k8TnSCdkmulAkpY-129" value="" style="rounded=0;whiteSpace=wrap;html=1;strokeColor=#d6b656;fillColor=#fff2cc;" parent="1" vertex="1">
          <mxGeometry x="560" y="180" width="20" height="20" as="geometry" />
        </mxCell>
        <mxCell id="rxAq2k8TnSCdkmulAkpY-130" value="" style="rounded=0;whiteSpace=wrap;html=1;strokeColor=#d6b656;fillColor=#fff2cc;" parent="1" vertex="1">
          <mxGeometry x="580" y="180" width="20" height="20" as="geometry" />
        </mxCell>
        <mxCell id="rxAq2k8TnSCdkmulAkpY-131" value="" style="rounded=0;whiteSpace=wrap;html=1;strokeColor=light-dark(#e1c470, #6d5100);" parent="1" vertex="1">
          <mxGeometry x="600" y="180" width="20" height="20" as="geometry" />
        </mxCell>
        <mxCell id="rxAq2k8TnSCdkmulAkpY-132" value="" style="rounded=0;whiteSpace=wrap;html=1;strokeColor=light-dark(#e1c470, #6d5100);" parent="1" vertex="1">
          <mxGeometry x="620" y="180" width="20" height="20" as="geometry" />
        </mxCell>
        <mxCell id="rxAq2k8TnSCdkmulAkpY-133" value="" style="rounded=0;whiteSpace=wrap;html=1;strokeColor=light-dark(#e1c470, #6d5100);" parent="1" vertex="1">
          <mxGeometry x="640" y="180" width="20" height="20" as="geometry" />
        </mxCell>
        <mxCell id="rxAq2k8TnSCdkmulAkpY-134" value="" style="rounded=0;whiteSpace=wrap;html=1;strokeColor=light-dark(#e1c470, #6d5100);" parent="1" vertex="1">
          <mxGeometry x="660" y="180" width="20" height="20" as="geometry" />
        </mxCell>
        <mxCell id="rxAq2k8TnSCdkmulAkpY-135" value="" style="rounded=0;whiteSpace=wrap;html=1;strokeColor=light-dark(#e1c470, #6d5100);" parent="1" vertex="1">
          <mxGeometry x="680" y="180" width="20" height="20" as="geometry" />
        </mxCell>
        <mxCell id="rxAq2k8TnSCdkmulAkpY-136" value="" style="rounded=0;whiteSpace=wrap;html=1;strokeColor=light-dark(#e1c470, #6d5100);" parent="1" vertex="1">
          <mxGeometry x="700" y="180" width="20" height="20" as="geometry" />
        </mxCell>
        <mxCell id="rxAq2k8TnSCdkmulAkpY-137" value="" style="rounded=0;whiteSpace=wrap;html=1;strokeColor=#d6b656;fillColor=#fff2cc;" parent="1" vertex="1">
          <mxGeometry x="540" y="200" width="20" height="20" as="geometry" />
        </mxCell>
        <mxCell id="rxAq2k8TnSCdkmulAkpY-138" value="" style="rounded=0;whiteSpace=wrap;html=1;strokeColor=#d6b656;fillColor=#fff2cc;" parent="1" vertex="1">
          <mxGeometry x="560" y="200" width="20" height="20" as="geometry" />
        </mxCell>
        <mxCell id="rxAq2k8TnSCdkmulAkpY-139" value="" style="rounded=0;whiteSpace=wrap;html=1;strokeColor=#d6b656;fillColor=#fff2cc;" parent="1" vertex="1">
          <mxGeometry x="580" y="200" width="20" height="20" as="geometry" />
        </mxCell>
        <mxCell id="rxAq2k8TnSCdkmulAkpY-140" value="" style="rounded=0;whiteSpace=wrap;html=1;strokeColor=light-dark(#e1c470, #6d5100);" parent="1" vertex="1">
          <mxGeometry x="600" y="200" width="20" height="20" as="geometry" />
        </mxCell>
        <mxCell id="rxAq2k8TnSCdkmulAkpY-141" value="" style="rounded=0;whiteSpace=wrap;html=1;strokeColor=light-dark(#e1c470, #6d5100);" parent="1" vertex="1">
          <mxGeometry x="620" y="200" width="20" height="20" as="geometry" />
        </mxCell>
        <mxCell id="rxAq2k8TnSCdkmulAkpY-142" value="" style="rounded=0;whiteSpace=wrap;html=1;strokeColor=light-dark(#e1c470, #6d5100);" parent="1" vertex="1">
          <mxGeometry x="640" y="200" width="20" height="20" as="geometry" />
        </mxCell>
        <mxCell id="rxAq2k8TnSCdkmulAkpY-143" value="" style="rounded=0;whiteSpace=wrap;html=1;strokeColor=light-dark(#e1c470, #6d5100);" parent="1" vertex="1">
          <mxGeometry x="660" y="200" width="20" height="20" as="geometry" />
        </mxCell>
        <mxCell id="rxAq2k8TnSCdkmulAkpY-144" value="" style="rounded=0;whiteSpace=wrap;html=1;strokeColor=light-dark(#e1c470, #6d5100);" parent="1" vertex="1">
          <mxGeometry x="680" y="200" width="20" height="20" as="geometry" />
        </mxCell>
        <mxCell id="rxAq2k8TnSCdkmulAkpY-145" value="" style="rounded=0;whiteSpace=wrap;html=1;strokeColor=light-dark(#e1c470, #6d5100);" parent="1" vertex="1">
          <mxGeometry x="700" y="200" width="20" height="20" as="geometry" />
        </mxCell>
        <mxCell id="rxAq2k8TnSCdkmulAkpY-146" value="" style="rounded=0;whiteSpace=wrap;html=1;strokeColor=#d6b656;fillColor=#fff2cc;" parent="1" vertex="1">
          <mxGeometry x="540" y="220" width="20" height="20" as="geometry" />
        </mxCell>
        <mxCell id="rxAq2k8TnSCdkmulAkpY-147" value="" style="rounded=0;whiteSpace=wrap;html=1;strokeColor=#d6b656;fillColor=#fff2cc;" parent="1" vertex="1">
          <mxGeometry x="560" y="220" width="20" height="20" as="geometry" />
        </mxCell>
        <mxCell id="rxAq2k8TnSCdkmulAkpY-148" value="" style="rounded=0;whiteSpace=wrap;html=1;strokeColor=#d6b656;fillColor=#fff2cc;" parent="1" vertex="1">
          <mxGeometry x="580" y="220" width="20" height="20" as="geometry" />
        </mxCell>
        <mxCell id="rxAq2k8TnSCdkmulAkpY-149" value="" style="rounded=0;whiteSpace=wrap;html=1;strokeColor=light-dark(#e1c470, #6d5100);" parent="1" vertex="1">
          <mxGeometry x="600" y="220" width="20" height="20" as="geometry" />
        </mxCell>
        <mxCell id="rxAq2k8TnSCdkmulAkpY-150" value="" style="rounded=0;whiteSpace=wrap;html=1;strokeColor=light-dark(#e1c470, #6d5100);" parent="1" vertex="1">
          <mxGeometry x="620" y="220" width="20" height="20" as="geometry" />
        </mxCell>
        <mxCell id="rxAq2k8TnSCdkmulAkpY-151" value="" style="rounded=0;whiteSpace=wrap;html=1;strokeColor=light-dark(#e1c470, #6d5100);" parent="1" vertex="1">
          <mxGeometry x="640" y="220" width="20" height="20" as="geometry" />
        </mxCell>
        <mxCell id="rxAq2k8TnSCdkmulAkpY-152" value="" style="rounded=0;whiteSpace=wrap;html=1;strokeColor=light-dark(#e1c470, #6d5100);" parent="1" vertex="1">
          <mxGeometry x="660" y="220" width="20" height="20" as="geometry" />
        </mxCell>
        <mxCell id="rxAq2k8TnSCdkmulAkpY-153" value="" style="rounded=0;whiteSpace=wrap;html=1;strokeColor=light-dark(#e1c470, #6d5100);" parent="1" vertex="1">
          <mxGeometry x="680" y="220" width="20" height="20" as="geometry" />
        </mxCell>
        <mxCell id="rxAq2k8TnSCdkmulAkpY-154" value="" style="rounded=0;whiteSpace=wrap;html=1;strokeColor=light-dark(#e1c470, #6d5100);" parent="1" vertex="1">
          <mxGeometry x="700" y="220" width="20" height="20" as="geometry" />
        </mxCell>
        <mxCell id="rxAq2k8TnSCdkmulAkpY-155" value="" style="rounded=0;whiteSpace=wrap;html=1;strokeColor=#d6b656;fillColor=#fff2cc;" parent="1" vertex="1">
          <mxGeometry x="540" y="240" width="20" height="20" as="geometry" />
        </mxCell>
        <mxCell id="rxAq2k8TnSCdkmulAkpY-156" value="" style="rounded=0;whiteSpace=wrap;html=1;strokeColor=#d6b656;fillColor=#fff2cc;" parent="1" vertex="1">
          <mxGeometry x="560" y="240" width="20" height="20" as="geometry" />
        </mxCell>
        <mxCell id="rxAq2k8TnSCdkmulAkpY-157" value="" style="rounded=0;whiteSpace=wrap;html=1;strokeColor=#d6b656;fillColor=#fff2cc;" parent="1" vertex="1">
          <mxGeometry x="580" y="240" width="20" height="20" as="geometry" />
        </mxCell>
        <mxCell id="rxAq2k8TnSCdkmulAkpY-158" value="" style="rounded=0;whiteSpace=wrap;html=1;strokeColor=light-dark(#e1c470, #6d5100);" parent="1" vertex="1">
          <mxGeometry x="600" y="240" width="20" height="20" as="geometry" />
        </mxCell>
        <mxCell id="rxAq2k8TnSCdkmulAkpY-159" value="" style="rounded=0;whiteSpace=wrap;html=1;strokeColor=light-dark(#e1c470, #6d5100);" parent="1" vertex="1">
          <mxGeometry x="620" y="240" width="20" height="20" as="geometry" />
        </mxCell>
        <mxCell id="rxAq2k8TnSCdkmulAkpY-160" value="" style="rounded=0;whiteSpace=wrap;html=1;strokeColor=light-dark(#e1c470, #6d5100);" parent="1" vertex="1">
          <mxGeometry x="640" y="240" width="20" height="20" as="geometry" />
        </mxCell>
        <mxCell id="rxAq2k8TnSCdkmulAkpY-161" value="" style="rounded=0;whiteSpace=wrap;html=1;strokeColor=light-dark(#e1c470, #6d5100);" parent="1" vertex="1">
          <mxGeometry x="660" y="240" width="20" height="20" as="geometry" />
        </mxCell>
        <mxCell id="rxAq2k8TnSCdkmulAkpY-162" value="" style="rounded=0;whiteSpace=wrap;html=1;strokeColor=light-dark(#e1c470, #6d5100);" parent="1" vertex="1">
          <mxGeometry x="680" y="240" width="20" height="20" as="geometry" />
        </mxCell>
        <mxCell id="rxAq2k8TnSCdkmulAkpY-163" value="" style="rounded=0;whiteSpace=wrap;html=1;strokeColor=light-dark(#e1c470, #6d5100);" parent="1" vertex="1">
          <mxGeometry x="700" y="240" width="20" height="20" as="geometry" />
        </mxCell>
        <mxCell id="rxAq2k8TnSCdkmulAkpY-164" value="A" style="text;html=1;align=center;verticalAlign=middle;resizable=0;points=[];autosize=1;strokeColor=none;fillColor=none;fontColor=#B3B3B3;" parent="1" vertex="1">
          <mxGeometry x="270" y="50" width="30" height="30" as="geometry" />
        </mxCell>
        <mxCell id="rxAq2k8TnSCdkmulAkpY-165" value="&lt;b&gt;B&lt;/b&gt;" style="text;html=1;align=center;verticalAlign=middle;resizable=0;points=[];autosize=1;strokeColor=none;fillColor=none;fontColor=#B3B3B3;" parent="1" vertex="1">
          <mxGeometry x="530" y="50" width="30" height="30" as="geometry" />
        </mxCell>
        <mxCell id="rxAq2k8TnSCdkmulAkpY-166" value="&lt;font style=&quot;font-size: 10px; color: light-dark(rgb(150, 146, 146), rgb(237, 237, 237));&quot;&gt;Load 27 blocks&lt;/font&gt;" style="text;html=1;align=center;verticalAlign=middle;resizable=0;points=[];autosize=1;strokeColor=none;fillColor=none;" parent="1" vertex="1">
          <mxGeometry x="318" y="50" width="90" height="30" as="geometry" />
        </mxCell>
        <mxCell id="rxAq2k8TnSCdkmulAkpY-167" value="&lt;font style=&quot;font-size: 10px; color: light-dark(rgb(150, 146, 146), rgb(237, 237, 237));&quot;&gt;Load 27 blocks&lt;/font&gt;" style="text;html=1;align=center;verticalAlign=middle;resizable=0;points=[];autosize=1;strokeColor=none;fillColor=none;" parent="1" vertex="1">
          <mxGeometry x="600" y="50" width="90" height="30" as="geometry" />
        </mxCell>
        <mxCell id="rxAq2k8TnSCdkmulAkpY-169" value="X" style="text;html=1;align=center;verticalAlign=middle;resizable=0;points=[];autosize=1;strokeColor=none;fillColor=none;" parent="1" vertex="1">
          <mxGeometry x="480" y="150" width="30" height="30" as="geometry" />
        </mxCell>
      </root>
    </mxGraphModel>
  </diagram>
</mxfile>
